<?xml version="1.0" standalone="no"?>
<!DOCTYPE svg PUBLIC "-//W3C//DTD SVG 20010904//EN"
 "http://www.w3.org/TR/2001/REC-SVG-20010904/DTD/svg10.dtd">
<svg version="1.0" xmlns="http://www.w3.org/2000/svg"
 width="1200.000000pt" height="1200.000000pt" viewBox="0 0 1200.000000 1200.000000"
 preserveAspectRatio="xMidYMid meet">
<metadata>
Created by potrace 1.14, written by Peter Selinger 2001-2017
</metadata>
<g transform="translate(0.000000,1200.000000) scale(0.100000,-0.100000)"
fill="#000000" stroke="none">
<path d="M0 6000 l0 -6000 6000 0 6000 0 0 6000 0 6000 -6000 0 -6000 0 0
-6000z m8383 3082 c9 -8 17 -29 17 -47 0 -34 -20 -58 -58 -70 -59 -18 -246
-508 -227 -595 8 -38 49 -70 90 -70 54 0 228 133 218 168 -2 10 5 29 15 42 17
21 24 23 48 15 24 -9 29 -16 29 -45 0 -30 -5 -37 -39 -55 -34 -18 -48 -36 -89
-118 -63 -124 -71 -179 -32 -225 42 -51 92 -46 221 22 56 30 129 72 161 93 32
22 66 42 75 45 10 4 14 15 11 30 -7 35 29 65 65 52 38 -13 44 -66 9 -89 -13
-8 -31 -13 -39 -10 -15 6 -61 -31 -420 -333 -148 -125 -179 -145 -193 -123 -7
13 -174 128 -250 173 -152 91 -368 188 -542 242 -59 19 -109 39 -111 45 -4 13
25 614 34 682 4 34 2 49 -10 58 -23 19 -20 67 5 85 24 16 57 9 72 -16 14 -21
0 -68 -20 -68 -14 0 -15 -11 -9 -87 10 -132 35 -291 52 -334 37 -91 135 -92
197 -2 35 51 98 186 98 209 0 11 -3 33 -7 51 -5 26 -2 34 20 48 24 16 28 16
51 1 31 -21 32 -50 1 -79 -20 -19 -24 -35 -30 -112 -9 -123 5 -173 58 -199 35
-17 41 -18 71 -3 61 29 184 199 308 428 43 79 46 88 35 116 -29 76 53 129 115
75z m-863 -1006 c58 -20 173 -70 256 -110 157 -77 428 -250 421 -269 -2 -6
-15 -19 -29 -30 l-26 -19 -73 50 c-132 88 -190 123 -308 182 -108 54 -342 150
-404 165 -24 6 -27 12 -27 50 l0 43 43 -13 c23 -7 89 -29 147 -49z m282 -1739
l3 -1344 155 170 c541 591 575 636 575 772 0 85 -22 122 -89 153 -32 16 -167
42 -213 42 -2 0 -3 14 -3 30 l0 30 520 0 520 0 0 -29 0 -28 -100 -12 c-183
-20 -253 -61 -455 -265 -233 -234 -477 -504 -469 -518 8 -13 109 -128 546
-618 273 -307 552 -585 654 -653 78 -51 173 -91 244 -101 99 -15 100 -15 100
-47 l0 -29 -635 0 -635 0 0 30 c0 26 4 30 38 35 156 24 211 79 183 183 -6 24
-21 58 -34 76 -12 18 -179 208 -372 422 -192 213 -355 394 -360 402 -8 10 -29
-8 -94 -80 l-83 -93 5 -290 c8 -370 19 -426 104 -506 56 -54 125 -85 256 -113
22 -5 27 -12 27 -36 l0 -30 -600 0 -600 0 0 30 c0 32 -4 30 105 50 169 31 245
120 277 321 10 67 13 366 13 1479 0 1284 -1 1401 -17 1469 -20 83 -53 145
-105 196 -37 36 -125 75 -171 75 -54 0 -72 10 -72 41 0 16 1 29 3 30 13 3 738
97 754 98 l23 1 2 -1343z m-2737 1216 c227 -37 391 -87 570 -173 418 -202 751
-594 914 -1075 77 -229 111 -443 111 -700 0 -525 -164 -971 -469 -1275 -302
-301 -662 -421 -1316 -437 l-230 -6 49 38 c36 29 61 39 96 43 44 4 49 2 71
-27 12 -17 30 -31 38 -31 9 0 45 22 81 49 40 30 100 62 157 83 149 56 243 118
368 243 516 513 655 1430 335 2209 -152 369 -416 670 -731 835 -245 128 -486
171 -961 171 l-208 0 0 -83 0 -84 -130 5 c-160 6 -164 4 -225 -119 l-46 -90
-36 31 c-36 32 -37 32 -113 26 l-78 -7 -30 65 c-71 151 -206 237 -415 266 -43
5 -80 10 -83 10 -2 0 -4 14 -4 31 l0 30 1078 -4 c1039 -3 1082 -4 1207 -24z
m-854 -382 c121 -21 329 -79 329 -92 0 -5 -19 -9 -42 -9 -73 0 -250 -29 -318
-51 -164 -54 -222 -96 -514 -373 -191 -182 -216 -196 -290 -161 -27 13 -46 44
-135 223 -90 180 -102 211 -92 229 16 31 126 82 192 89 90 10 89 12 89 -244
l0 -217 78 155 c74 147 228 415 259 452 8 9 27 19 42 22 51 9 297 -5 402 -23z
m533 -197 c140 -35 415 -251 586 -459 231 -283 380 -669 380 -988 0 -67 -3
-139 -6 -160 -6 -36 -9 -32 -59 100 -90 236 -169 387 -276 530 -135 179 -324
332 -526 425 l-68 32 50 8 c70 12 190 -7 304 -47 l96 -34 -35 30 c-54 46 -226
125 -325 150 -92 22 -241 30 -397 19 -36 -3 -70 -1 -74 3 -13 13 45 64 113 98
83 42 186 49 363 24 66 -9 123 -15 126 -12 10 10 -184 97 -260 117 -99 25
-263 27 -374 4 -81 -17 -181 -14 -256 7 l-38 11 28 30 c109 114 424 168 648
112z m-1637 -150 c18 -29 144 -316 140 -321 -6 -5 -172 49 -209 68 -43 22
-108 111 -108 148 0 49 86 131 137 131 13 0 30 -11 40 -26z m1030 -199 c87
-28 172 -73 236 -124 57 -46 136 -139 143 -168 12 -45 -5 -89 -51 -136 -61
-62 -111 -89 -251 -136 -65 -23 -126 -44 -134 -47 -12 -4 -12 -8 5 -21 16 -12
39 -14 127 -8 82 5 114 3 141 -9 39 -16 106 -94 142 -165 27 -53 79 -215 74
-230 -2 -5 -33 8 -69 30 -54 33 -179 83 -187 75 -2 -1 13 -31 31 -67 45 -84
57 -133 57 -228 0 -59 -6 -99 -26 -156 -43 -130 -44 -130 -110 -36 -31 44 -61
83 -66 86 -5 4 -9 -23 -9 -62 -1 -192 -98 -367 -296 -533 -278 -232 -334 -301
-380 -471 -35 -126 -17 -420 35 -589 11 -35 19 -65 17 -67 -8 -8 -140 91 -210
157 -91 87 -152 169 -198 266 -29 60 -33 79 -33 149 0 89 19 138 72 186 15 15
114 82 218 150 308 201 347 229 417 300 79 78 121 157 139 262 27 164 -20 406
-122 629 -56 120 -63 82 -23 -112 33 -156 38 -358 11 -457 -22 -84 -59 -154
-104 -200 -56 -57 -402 -333 -407 -325 -7 13 14 123 30 156 9 17 87 101 173
186 163 161 197 209 220 311 19 81 8 239 -17 239 -4 0 -28 -39 -52 -87 -25
-48 -55 -99 -67 -113 -22 -26 -140 -87 -149 -77 -3 3 6 67 20 143 28 151 27
156 -30 174 -43 15 -69 6 -91 -30 -29 -50 -78 -67 -355 -127 -35 -7 -35 -12 1
-57 16 -20 32 -55 36 -77 9 -54 52 -101 117 -129 49 -21 51 -23 30 -31 -17 -7
-41 -2 -88 17 -35 14 -68 22 -74 19 -13 -8 -13 -42 0 -50 6 -3 10 -15 10 -26
0 -15 -5 -19 -17 -15 -36 10 -93 18 -93 13 0 -3 10 -22 21 -42 27 -46 18 -55
-21 -21 -32 27 -64 34 -75 16 -22 -36 -243 40 -340 117 -75 60 -118 159 -91
212 9 16 19 31 23 33 5 1 21 20 36 41 31 41 63 61 116 71 48 9 71 33 71 72 l0
33 -56 -19 c-31 -11 -84 -20 -117 -22 -71 -2 -257 12 -257 20 0 3 14 27 31 54
49 76 150 160 344 289 245 161 229 147 227 203 -4 92 46 161 191 263 119 84
97 100 -48 33 -48 -23 -89 -39 -91 -37 -2 2 -12 34 -21 72 l-17 68 24 19 c19
16 33 18 70 13 63 -9 186 -42 221 -60 54 -28 31 -72 -68 -129 -65 -38 -100
-74 -109 -113 -10 -38 -1 -36 49 11 26 26 88 66 147 95 l102 51 101 0 102 0
61 -66 c58 -62 64 -66 98 -62 20 2 36 2 36 -2 0 -3 -14 -25 -30 -50 -16 -25
-30 -48 -30 -52 0 -12 91 -26 125 -18 19 4 51 17 71 29 20 12 38 20 40 18 2
-2 0 -28 -6 -57 -23 -123 -1 -267 61 -400 30 -65 169 -280 180 -280 10 0 19
68 19 140 0 76 -34 221 -85 369 -34 96 -36 108 -25 145 17 57 102 136 201 185
45 23 88 41 95 41 18 0 18 14 -1 51 -18 35 -97 87 -204 137 -92 42 -116 40
-214 -23 -68 -44 -75 -46 -129 -43 -32 2 -60 7 -64 10 -12 13 29 70 74 103 75
56 222 122 274 124 9 1 52 -10 95 -24z m861 -546 c181 -78 360 -300 452 -564
42 -119 58 -192 71 -317 9 -93 4 -276 -8 -264 -3 3 -20 40 -37 83 -42 104 -75
160 -137 228 -47 51 -105 93 -115 83 -2 -3 1 -45 7 -94 41 -327 -99 -642 -376
-848 l-50 -37 -6 33 c-4 18 -12 73 -19 121 -8 57 -16 87 -24 84 -6 -2 -25 -44
-41 -93 -17 -49 -44 -113 -60 -143 -39 -71 -137 -176 -251 -267 -140 -112
-177 -159 -257 -323 -79 -161 -77 -160 -118 -52 -17 46 -20 72 -17 146 7 142
50 223 228 429 79 92 194 234 303 374 5 7 7 15 5 18 -6 5 -315 -257 -477 -405
-162 -148 -205 -239 -220 -469 -5 -73 -12 -136 -15 -139 -7 -7 -68 92 -94 154
-57 135 -70 313 -32 436 37 120 70 157 511 569 222 208 296 293 388 447 79
131 150 358 151 479 0 69 24 52 43 -30 68 -288 28 -592 -108 -835 -37 -68 -4
-55 79 30 86 88 138 181 167 303 19 80 21 108 16 269 -6 210 -43 448 -93 609
-6 17 -2 18 41 12 26 -4 68 -16 93 -27z m-2605 -841 c4 -29 21 -81 38 -116 33
-68 32 -87 -2 -56 -55 49 -97 165 -84 231 l7 38 17 -22 c10 -12 21 -45 24 -75z
m221 -274 c39 -20 94 -54 123 -76 51 -39 113 -118 113 -144 0 -25 -43 -35
-208 -49 -190 -16 -191 -16 -212 60 -15 54 -7 89 30 137 16 20 37 52 47 72 9
20 21 36 27 36 5 0 41 -16 80 -36z m306 -548 c0 -2 7 -43 15 -92 21 -119 74
-248 182 -440 108 -191 146 -264 140 -271 -11 -11 -267 257 -312 327 -67 104
-135 250 -135 292 0 31 18 67 80 166 13 19 30 30 30 18z"/>
<path d="M3245 6195 c-16 -7 -40 -22 -52 -32 -27 -22 -93 -123 -93 -141 0 -7
12 -29 26 -48 15 -19 25 -36 23 -38 -13 -11 -91 -46 -104 -46 -17 0 -255 -158
-298 -199 -26 -24 -27 -27 -11 -38 43 -32 99 -8 196 82 36 35 83 68 103 75 32
10 34 13 20 24 -14 10 -7 16 55 41 64 26 75 27 106 16 32 -12 38 -10 109 29
41 23 75 44 75 46 0 3 -39 23 -87 45 -48 22 -91 45 -95 52 -9 14 6 41 54 100
43 51 35 61 -27 32z"/>
<path d="M3350 5854 c-41 -19 -51 -27 -40 -34 8 -5 25 -7 36 -4 30 8 64 -12
64 -36 0 -11 4 -20 9 -20 9 0 71 79 71 90 0 9 -47 30 -68 30 -9 0 -42 -12 -72
-26z"/>
</g>
</svg>
